<?xml version="1.0" encoding="UTF-8" standalone="no"?>
<!DOCTYPE svg PUBLIC "-//W3C//DTD SVG 1.1//EN" "http://www.w3.org/Graphics/SVG/1.1/DTD/svg11.dtd">
<svg xmlns="http://www.w3.org/2000/svg" xmlns:xlink="http://www.w3.org/1999/xlink" width="1152" height="1728" viewbox="0 0 1152 1728" version="1.1">
<rect x="50" y="50" width="384.0" height="384.0" stroke-width="1" stroke="black" fill="none"/>
<circle cx = "178.0" cy = "428.0" r = "4.32" stroke-width="1" stroke="black" fill="black"/>
<circle cx = "306.0" cy = "428.0" r = "4.32" stroke-width="1" stroke="black" fill="black"/>
<circle cx = "178.0" cy = "56.0" r = "4.32" stroke-width="1" stroke="black" fill="black"/>
<circle cx = "306.0" cy = "56.0" r = "4.32" stroke-width="1" stroke="black" fill="black"/>
<circle cx = "428.0" cy = "178.0" r = "4.32" stroke-width="1" stroke="black" fill="black"/>
<circle cx = "428.0" cy = "306.0" r = "4.32" stroke-width="1" stroke="black" fill="black"/>
<circle cx = "56.0" cy = "178.0" r = "4.32" stroke-width="1" stroke="black" fill="black"/>
<circle cx = "56.0" cy = "306.0" r = "4.32" stroke-width="1" stroke="black" fill="black"/>
<rect x="484.0" y="50" width="384.0" height="276.0" stroke-width="1" stroke="black" fill="none"/>
<circle cx = "490.0" cy = "142.0" r = "4.32" stroke-width="1" stroke="black" fill="black"/>
<circle cx = "490.0" cy = "234.0" r = "4.32" stroke-width="1" stroke="black" fill="black"/>
<circle cx = "862.0" cy = "142.0" r = "4.32" stroke-width="1" stroke="black" fill="black"/>
<circle cx = "862.0" cy = "234.0" r = "4.32" stroke-width="1" stroke="black" fill="black"/>
<polyline points = "616.32,326.0 616.32,340.88 611.5200000000001,340.88 611.5200000000001,347.6 616.32,347.6 616.32,362.48, 624.96,362.48 624.96,347.6 629.7600000000001,347.6 629.7600000000001,340.88 624.96,340.88 624.96,326.0" stroke-width="1" stroke="black" fill="none" transform="rotate(180,616.32,326.0)"/>
<polyline points = "744.32,326.0 744.32,340.88 739.5200000000001,340.88 739.5200000000001,347.6 744.32,347.6 744.32,362.48, 752.96,362.48 752.96,347.6 757.7600000000001,347.6 757.7600000000001,340.88 752.96,340.88 752.96,326.0" stroke-width="1" stroke="black" fill="none" transform="rotate(180,744.32,326.0)"/>
<rect x="628.0" y="50" width="96" height="12.0" stroke-width="1" stroke="black" fill="none"/>
<rect x="50" y="484.0" width="384.0" height="276.0" stroke-width="1" stroke="black" fill="none"/>
<circle cx = "56.0" cy = "576.0" r = "4.32" stroke-width="1" stroke="black" fill="black"/>
<circle cx = "56.0" cy = "668.0" r = "4.32" stroke-width="1" stroke="black" fill="black"/>
<circle cx = "428.0" cy = "576.0" r = "4.32" stroke-width="1" stroke="black" fill="black"/>
<circle cx = "428.0" cy = "668.0" r = "4.32" stroke-width="1" stroke="black" fill="black"/>
<polyline points = "182.32,760.0 182.32,774.88 177.51999999999998,774.88 177.51999999999998,781.6 182.32,781.6 182.32,796.48, 190.95999999999998,796.48 190.95999999999998,781.6 195.76,781.6 195.76,774.88 190.95999999999998,774.88 190.95999999999998,760.0" stroke-width="1" stroke="black" fill="none" transform="rotate(180,182.32,760.0)"/>
<polyline points = "310.32,760.0 310.32,774.88 305.52,774.88 305.52,781.6 310.32,781.6 310.32,796.48, 318.96,796.48 318.96,781.6 323.76,781.6 323.76,774.88 318.96,774.88 318.96,760.0" stroke-width="1" stroke="black" fill="none" transform="rotate(180,310.32,760.0)"/>
<rect x="194.0" y="484.0" width="96" height="12.0" stroke-width="1" stroke="black" fill="none"/>
<rect x="484.0" y="484.0" width="360.0" height="276.0" stroke-width="1" stroke="black" fill="none"/>
<polyline points = "608.32,760.0 608.32,774.88 603.5200000000001,774.88 603.5200000000001,781.6 608.32,781.6 608.32,796.48, 616.96,796.48 616.96,781.6 621.7600000000001,781.6 621.7600000000001,774.88 616.96,774.88 616.96,760.0" stroke-width="1" stroke="black" fill="none" transform="rotate(180,608.32,760.0)"/>
<polyline points = "728.32,760.0 728.32,774.88 723.5200000000001,774.88 723.5200000000001,781.6 728.32,781.6 728.32,796.48, 736.96,796.48 736.96,781.6 741.7600000000001,781.6 741.7600000000001,774.88 736.96,774.88 736.96,760.0" stroke-width="1" stroke="black" fill="none" transform="rotate(180,728.32,760.0)"/>
<polyline points = "484.0,580.32 484.0,595.2 479.2,595.2 479.2,601.9200000000001 484.0,601.9200000000001 484.0,616.8000000000001, 492.64,616.8000000000001 492.64,601.9200000000001 497.44,601.9200000000001 497.44,595.2 492.64,595.2 492.64,580.32" stroke-width="1" stroke="black" fill="none" transform="rotate(270,484.0,580.32)"/>
<polyline points = "484.0,672.32 484.0,687.2 479.2,687.2 479.2,693.9200000000001 484.0,693.9200000000001 484.0,708.8000000000001, 492.64,708.8000000000001 492.64,693.9200000000001 497.44,693.9200000000001 497.44,687.2 492.64,687.2 492.64,672.32" stroke-width="1" stroke="black" fill="none" transform="rotate(270,484.0,672.32)"/>
<polyline points = "844.0,571.68 844.0,586.56 839.2,586.56 839.2,593.28 844.0,593.28 844.0,608.16, 852.64,608.16 852.64,593.28 857.44,593.28 857.44,586.56 852.64,586.56 852.64,571.68" stroke-width="1" stroke="black" fill="none" transform="rotate(90,844.0,571.68)"/>
<polyline points = "844.0,663.68 844.0,678.56 839.2,678.56 839.2,685.28 844.0,685.28 844.0,700.16, 852.64,700.16 852.64,685.28 857.44,685.28 857.44,678.56 852.64,678.56 852.64,663.68" stroke-width="1" stroke="black" fill="none" transform="rotate(90,844.0,663.68)"/>
<rect x="616.0" y="484.0" width="96" height="12.0" stroke-width="1" stroke="black" fill="none"/>
<rect x="50" y="822.0" width="360.0" height="276.0" stroke-width="1" stroke="black" fill="none"/>
<polyline points = "174.32,1098.0 174.32,1112.88 169.51999999999998,1112.88 169.51999999999998,1119.6 174.32,1119.6 174.32,1134.48, 182.95999999999998,1134.48 182.95999999999998,1119.6 187.76,1119.6 187.76,1112.88 182.95999999999998,1112.88 182.95999999999998,1098.0" stroke-width="1" stroke="black" fill="none" transform="rotate(180,174.32,1098.0)"/>
<polyline points = "294.32,1098.0 294.32,1112.88 289.52,1112.88 289.52,1119.6 294.32,1119.6 294.32,1134.48, 302.96,1134.48 302.96,1119.6 307.76,1119.6 307.76,1112.88 302.96,1112.88 302.96,1098.0" stroke-width="1" stroke="black" fill="none" transform="rotate(180,294.32,1098.0)"/>
<polyline points = "50,918.32 50,933.2 45.2,933.2 45.2,939.9200000000001 50,939.9200000000001 50,954.8000000000001, 58.64,954.8000000000001 58.64,939.9200000000001 63.44,939.9200000000001 63.44,933.2 58.64,933.2 58.64,918.32" stroke-width="1" stroke="black" fill="none" transform="rotate(270,50,918.32)"/>
<polyline points = "50,1010.32 50,1025.2 45.2,1025.2 45.2,1031.92 50,1031.92 50,1046.8, 58.64,1046.8 58.64,1031.92 63.44,1031.92 63.44,1025.2 58.64,1025.2 58.64,1010.32" stroke-width="1" stroke="black" fill="none" transform="rotate(270,50,1010.32)"/>
<polyline points = "410.0,909.68 410.0,924.56 405.2,924.56 405.2,931.28 410.0,931.28 410.0,946.16, 418.64,946.16 418.64,931.28 423.44,931.28 423.44,924.56 418.64,924.56 418.64,909.68" stroke-width="1" stroke="black" fill="none" transform="rotate(90,410.0,909.68)"/>
<polyline points = "410.0,1001.68 410.0,1016.56 405.2,1016.56 405.2,1023.28 410.0,1023.28 410.0,1038.1599999999999, 418.64,1038.1599999999999 418.64,1023.28 423.44,1023.28 423.44,1016.56 418.64,1016.56 418.64,1001.68" stroke-width="1" stroke="black" fill="none" transform="rotate(90,410.0,1001.68)"/>
<rect x="182.0" y="822.0" width="96" height="12.0" stroke-width="1" stroke="black" fill="none"/>
<rect x="484.0" y="818.0" width="384.0" height="384.0" stroke-width="1" stroke="black" fill="none"/>
<rect x="484.0" y="818.0" width="144.0" height="12.0" stroke-width="1" stroke="black" fill="none"/>
<rect x="484.0" y="818.0" width="12.0" height="144.0" stroke-width="1" stroke="black" fill="none"/>
<rect x="724.0" y="818.0" width="144.0" height="12.0" stroke-width="1" stroke="black" fill="none"/>
<rect x="856.0" y="818.0" width="12.0" height="144.0" stroke-width="1" stroke="black" fill="none"/>
<rect x="484.0" y="1190.0" width="144.0" height="12.0" stroke-width="1" stroke="black" fill="none"/>
<rect x="484.0" y="1058.0" width="12.0" height="144.0" stroke-width="1" stroke="black" fill="none"/>
<rect x="724.0" y="1190.0" width="144.0" height="12.0" stroke-width="1" stroke="black" fill="none"/>
<rect x="856.0" y="1058.0" width="12.0" height="144.0" stroke-width="1" stroke="black" fill="none"/>
</svg>